<svg width="24" height="24" viewBox="0 0 24 24" fill="none" xmlns="http://www.w3.org/2000/svg">
<rect width="24" height="24" fill="black"/>
<path d="M21.2806 18.424C20.9328 19.2275 20.5211 19.9672 20.0441 20.6472C19.3939 21.5743 18.8615 22.216 18.4512 22.5724C17.8151 23.1573 17.1337 23.4568 16.4039 23.4739C15.8801 23.4739 15.2483 23.3248 14.5129 23.0224C13.7751 22.7214 13.097 22.5724 12.477 22.5724C11.8268 22.5724 11.1294 22.7214 10.3835 23.0224C9.63647 23.3248 9.03466 23.4824 8.57453 23.498C7.87475 23.5278 7.17725 23.2197 6.48102 22.5724C6.03665 22.1848 5.48084 21.5204 4.81499 20.5791C4.1006 19.5739 3.51326 18.4084 3.05313 17.0795C2.56035 15.6442 2.31332 14.2543 2.31332 12.9087C2.31332 11.3673 2.64639 10.0379 3.31351 8.92385C3.83781 8.029 4.53531 7.32312 5.40829 6.80493C6.28127 6.28674 7.22453 6.02267 8.24033 6.00578C8.79614 6.00578 9.52502 6.1777 10.4308 6.51559C11.334 6.85462 11.914 7.02655 12.1682 7.02655C12.3583 7.02655 13.0026 6.82552 14.0948 6.42473C15.1276 6.05305 15.9993 5.89916 16.7134 5.95978C18.6485 6.11595 20.1023 6.87876 21.0691 8.25303C19.3385 9.30163 18.4824 10.7703 18.4994 12.6544C18.5151 14.122 19.0474 15.3432 20.0938 16.3129C20.568 16.7629 21.0975 17.1107 21.6867 17.3578C21.5589 17.7283 21.424 18.0832 21.2806 18.424ZM16.8426 0.960131C16.8426 2.11039 16.4224 3.18439 15.5848 4.17847C14.5739 5.36023 13.3513 6.04311 12.0254 5.93536C12.0085 5.79736 11.9987 5.65213 11.9987 5.49951C11.9987 4.39526 12.4794 3.21349 13.3331 2.24724C13.7593 1.75801 14.3014 1.35122 14.9587 1.02671C15.6146 0.707053 16.235 0.530273 16.8185 0.5C16.8355 0.653772 16.8426 0.807554 16.8426 0.960116V0.960131Z" fill="white"/>
</svg>
