<svg width="157" height="101" viewBox="0 0 157 101" fill="none" xmlns="http://www.w3.org/2000/svg">
<path d="M78.5306 25.9225C81.4709 25.9225 83.9212 23.3547 83.9212 20.0533V5.86925C83.9212 2.50666 81.4709 0 78.5306 0C75.5291 0 73.0788 2.50666 73.0788 5.86925V20.0533C73.0788 23.3547 75.5291 25.9837 78.5306 25.9225ZM110.139 39.0061C112.283 41.0847 115.774 41.0236 118.163 38.7004L128.21 28.6737C130.599 26.2893 130.537 22.8045 128.455 20.7258C126.372 18.586 122.88 18.586 120.491 20.9703L110.445 30.997C108.056 33.3814 107.995 36.9274 110.139 39.0061ZM38.8365 38.7004C41.2255 41.0236 44.7784 41.1459 46.8611 39.0061C48.9438 36.8662 48.9438 33.3814 46.5548 30.997L36.5088 20.9703C34.1198 18.586 30.6282 18.6471 28.5455 20.7258C26.4015 22.8045 26.4015 26.2893 28.7905 28.6737L38.8365 38.7004ZM111.732 70.4921C111.732 52.273 96.7238 37.2331 78.5306 37.2331C60.2762 37.2331 45.2684 52.273 45.2684 70.4921C45.2684 74.405 46.0648 78.1955 47.5349 81.6804H109.465C110.935 78.1955 111.732 74.405 111.732 70.4921ZM13.6602 73.6713H27.8716C31.2407 73.6713 33.8135 71.2258 33.8135 68.23C33.7522 65.2343 31.2407 62.7887 27.8716 62.7887H13.6602C10.3523 62.7887 7.84081 65.2343 7.84081 68.23C7.84081 71.2258 10.3523 73.6713 13.6602 73.6713ZM129.128 73.6713H143.34C146.709 73.6713 149.159 71.2258 149.159 68.23C149.159 65.2343 146.709 62.7887 143.34 62.7887H129.128C125.759 62.7887 123.187 65.2343 123.187 68.23C123.248 71.2258 125.821 73.6713 129.128 73.6713ZM6.06438 101H150.936C154.243 101 157 98.3099 157 95.1919C157 92.0127 154.243 89.4449 150.936 89.4449H6.06438C2.75654 89.4449 0 92.0738 0 95.1919C0 98.3099 2.75654 101 6.06438 101Z" fill="white"/>
</svg>
